<?xml version="1.0" encoding="UTF-8" standalone="no"?>
<!-- Generator: Adobe Illustrator 20.1.0, SVG Export Plug-In . SVG Version: 6.00 Build 0)  -->

<svg
   xmlns:dc="http://purl.org/dc/elements/1.1/"
   xmlns:cc="http://creativecommons.org/ns#"
   xmlns:rdf="http://www.w3.org/1999/02/22-rdf-syntax-ns#"
   xmlns:svg="http://www.w3.org/2000/svg"
   xmlns="http://www.w3.org/2000/svg"
   xmlns:sodipodi="http://sodipodi.sourceforge.net/DTD/sodipodi-0.dtd"
   xmlns:inkscape="http://www.inkscape.org/namespaces/inkscape"
   version="1.1"
   id="Ebene_1"
   x="0px"
   y="0px"
   viewBox="0 0 1000 1000"
   style="enable-background:new 0 0 1000 1000;"
   xml:space="preserve"
   inkscape:version="0.91 r13725"
   sodipodi:docname="translate_logo.svg"><metadata
     id="metadata8087"><rdf:RDF><cc:Work
         rdf:about=""><dc:format>image/svg+xml</dc:format><dc:type
           rdf:resource="http://purl.org/dc/dcmitype/StillImage" /></cc:Work></rdf:RDF></metadata><defs
     id="defs8085" /><sodipodi:namedview
     pagecolor="#ffffff"
     bordercolor="#666666"
     borderopacity="1"
     objecttolerance="10"
     gridtolerance="10"
     guidetolerance="10"
     inkscape:pageopacity="0"
     inkscape:pageshadow="2"
     inkscape:window-width="1384"
     inkscape:window-height="867"
     id="namedview8083"
     showgrid="false"
     inkscape:zoom="0.638"
     inkscape:cx="500"
     inkscape:cy="500"
     inkscape:window-x="588"
     inkscape:window-y="134"
     inkscape:window-maximized="0"
     inkscape:current-layer="Ebene_1" /><style
     type="text/css"
     id="style8069">
	.st0{fill:#D9D9D9;}
	.st1{fill:#4352B8;}
	.st2{fill:#617D8B;}
	.st3{fill:#4F8BF5;}
	.st4{fill:#FFFFFF;}
	.st5{opacity:0.2;fill:#FFFFFF;}
</style><path
     class="st0"
     d="M933.6,998.5c36.5,0,66.4-29.4,66.4-65.4V266c0-36-29.9-65.4-66.4-65.4H285.5l260.1,797.9H933.6z"
     id="path8071" /><polygon
     class="st1"
     points="716.3,810 546.8,998.5 485.1,810 "
     id="polygon8073"
     style="fill:#008000" /><path
     class="st2"
     d="m 968.34796,462.67552 0,-54.40638 -262.26663,0 0,-87.88724 -85.09715,0 0,87.88724 -167.40424,0 0,54.40638 333.13444,0 c -17.85646,62.77657 -57.19646,122.06556 -95.55994,168.10175 -68.07773,-80.49355 -68.35673,-106.7202 -68.35673,-106.7202 l -70.72829,0 c 0,0 2.92959,39.20048 98.35001,151.08231 -30.96979,31.6673 -54.54589,50.50027 -54.54589,50.50027 l 21.76255,67.93822 c 0,0 32.78334,-28.1797 73.93688,-71.8443 41.15354,44.64112 94.30437,98.34998 163.07961,162.3821 l 44.64114,-44.64114 C 825.63586,772.65235 771.64799,719.64102 732.02897,677.09243 785.17983,614.17633 839.1677,535.07782 850.60699,462.53602 l 117.74097,0 z"
     id="path8075"
     inkscape:connector-curvature="0"
     style="fill:#617d8b" /><path
     class="st3"
     d="M68.3,0.2C31.8,0.2,1.9,30.1,1.9,66.7v677c0,36.5,29.9,66.4,66.4,66.4h648.1L456.3,0.2H68.3z"
     id="path8077"
     style="fill:#00c000;fill-opacity:1" /><path
     class="st4"
     d="m 518.92126,349.24825 -28.60203,0 -93.90727,0 -112.09352,0 0,97.21386 135.07435,0 c -12.56506,61.8333 -65.30523,97.21385 -135.07435,97.21385 -82.33419,0 -148.79672,-66.46253 -148.79672,-148.79672 0,-82.33418 66.46253,-148.79672 148.79672,-148.79672 35.54588,0 67.45451,12.56506 92.74995,33.23127 l 73.24105,-73.24105 c -44.63901,-38.85248 -101.84309,-62.99061 -165.991,-62.99061 -139.70359,0 -251.797123,112.09353 -251.797123,251.79711 0,139.70359 112.258863,251.96245 251.797123,251.96245 125.98122,0 240.38936,-91.59265 240.38936,-251.79712 0,-14.87967 -2.31461,-30.91665 -5.78654,-45.79632 z"
     id="path8079"
     inkscape:connector-curvature="0"
     style="fill:#ffffff" /><path
     class="st5"
     d="M536.2,200.6h397.4c36.5,0,66.4,29.4,66.4,65.4v400.2L536.2,200.6z"
     id="path8081" /></svg>