<?xml version="1.0" encoding="UTF-8" standalone="no"?>
<svg
   xmlns:dc="http://purl.org/dc/elements/1.1/"
   xmlns:cc="http://creativecommons.org/ns#"
   xmlns:rdf="http://www.w3.org/1999/02/22-rdf-syntax-ns#"
   xmlns:svg="http://www.w3.org/2000/svg"
   xmlns="http://www.w3.org/2000/svg"
   xmlns:sodipodi="http://sodipodi.sourceforge.net/DTD/sodipodi-0.dtd"
   xmlns:inkscape="http://www.inkscape.org/namespaces/inkscape"
   id="Layer_5"
   enable-background="new 0 0 64 64"
   height="512"
   viewBox="0 0 64 64"
   width="512"
   version="1.1"
   sodipodi:docname="_customisable.svg"
   inkscape:version="0.92.4 (f8dce91, 2019-08-02)">
  <metadata
     id="metadata43">
    <rdf:RDF>
      <cc:Work
         rdf:about="">
        <dc:format>image/svg+xml</dc:format>
        <dc:type
           rdf:resource="http://purl.org/dc/dcmitype/StillImage" />
        <dc:title></dc:title>
      </cc:Work>
    </rdf:RDF>
  </metadata>
  <defs
     id="defs41" />
  <sodipodi:namedview
     pagecolor="#ffffff"
     bordercolor="#666666"
     borderopacity="1"
     objecttolerance="10"
     gridtolerance="10"
     guidetolerance="10"
     inkscape:pageopacity="0"
     inkscape:pageshadow="2"
     inkscape:window-width="1269"
     inkscape:window-height="616"
     id="namedview39"
     showgrid="false"
     inkscape:zoom="0.32593203"
     inkscape:cx="706.77996"
     inkscape:cy="-127.88667"
     inkscape:window-x="125"
     inkscape:window-y="94"
     inkscape:window-maximized="0"
     inkscape:current-layer="Layer_5" />
  <g
     id="g8">
    <path
       style="fill:#8bc34a"
       inkscape:connector-curvature="0"
       id="path6"
       d="m 35,54 h 24 v 5 H 35 Z" />
  </g>
  <g
     id="g12">
    <path
       style="fill:#8bc34a"
       inkscape:connector-curvature="0"
       id="path10"
       d="m 52.675,18.079 c -0.831,0.126 -1.608,0.517 -2.213,1.122 l -1.93,1.93 C 48.836,22.032 49,22.997 49,24 c 0,4.971 -4.029,9 -9,9 -1.002,0 -1.963,-0.171 -2.864,-0.473 l -0.005,0.005 -0.011,-0.011 c -2.652,-0.896 -4.746,-2.99 -5.642,-5.642 l -0.011,-0.011 0.005,-0.005 C 31.171,25.963 31,25.002 31,24 c 0,-4.971 4.029,-9 9,-9 1.003,0 1.968,0.164 2.869,0.467 l 1.93,-1.93 c 0.605,-0.605 0.996,-1.382 1.122,-2.213 -0.518,-0.241 -1.056,-0.456 -1.608,-0.635 L 43.701,9 h -7.402 l -0.612,1.69 c -0.711,0.229 -1.397,0.512 -2.052,0.846 l -1.624,-0.76 -5.234,5.234 0.76,1.624 c -0.333,0.653 -0.616,1.34 -0.846,2.052 L 25,20.299 v 7.402 l 1.69,0.613 c 0.229,0.712 0.513,1.399 0.846,2.052 l -0.76,1.624 5.234,5.234 1.624,-0.76 c 0.653,0.333 1.34,0.616 2.052,0.846 L 36.299,39 h 7.402 l 0.612,-1.69 c 0.712,-0.229 1.398,-0.512 2.052,-0.846 l 1.624,0.76 5.234,-5.234 -0.76,-1.624 c 0.333,-0.653 0.616,-1.34 0.846,-2.052 L 55,27.701 v -7.402 l -1.69,-0.613 c -0.178,-0.552 -0.393,-1.089 -0.635,-1.607 z" />
  </g>
  <path
     d="m 13,25 h 2 v 2 h -2 z"
     id="path14"
     inkscape:connector-curvature="0" />
  <path
     d="m 5,25 h 2 v 2 H 5 Z"
     id="path16"
     inkscape:connector-curvature="0" />
  <path
     d="m 9,25 h 2 v 2 H 9 Z"
     id="path18"
     inkscape:connector-curvature="0" />
  <path
     d="M 59,41 H 35 v 10 h 24 z m -2,8 H 37 v -6 h 20 z"
     id="path22"
     inkscape:connector-curvature="0" />
  <path
     d="m 35,53 h 24 v 2 H 35 Z"
     id="path24"
     inkscape:connector-curvature="0" />
  <path
     d="m 35,57 h 20 v 2 H 35 Z"
     id="path26"
     inkscape:connector-curvature="0" />
  <path
     d="m 57,57 h 2 v 2 h -2 z"
     id="path28"
     inkscape:connector-curvature="0" />
  <path
     d="m 60,21 h -5 v 2 h 5 c 0.552,0 1,0.449 1,1 v 5 h -7.942 c -0.178,0.468 -0.37,0.927 -0.594,1.366 L 52.76,31 H 61 v 29 c 0,0.551 -0.448,1 -1,1 H 4 C 3.448,61 3,60.551 3,60 V 31 h 24.24 l 0.297,-0.634 C 27.313,29.927 27.12,29.467 26.943,29 H 3 V 24 C 3,23.449 3.448,23 4,23 H 25 V 21 H 4 c -1.654,0 -3,1.346 -3,3 v 36 c 0,1.654 1.346,3 3,3 h 56 c 1.654,0 3,-1.346 3,-3 V 24 c 0,-1.654 -1.346,-3 -3,-3 z"
     id="path30"
     inkscape:connector-curvature="0" />
  <path
     d="m 40,34 c 5.514,0 10,-4.486 10,-10 0,-0.877 -0.119,-1.742 -0.342,-2.58 l 1.512,-1.512 c 0.602,-0.602 1.408,-0.913 2.254,-0.871 2.561,0.152 5.081,-0.802 6.896,-2.617 2.296,-2.296 3.209,-5.649 2.384,-8.751 l -0.447,-1.677 -5.121,5.121 -3.718,-0.531 -0.531,-3.718 5.12,-5.12 -1.676,-0.447 c -3.099,-0.826 -6.453,0.086 -8.752,2.383 -1.814,1.814 -2.768,4.329 -2.616,6.897 0.049,0.83 -0.269,1.651 -0.87,2.253 l -1.512,1.512 C 41.742,14.118 40.877,14 40,14 c -5.514,0 -10,4.486 -10,10 0,5.514 4.486,10 10,10 z m 8,-10 c 0,4.411 -3.589,8 -8,8 -0.295,0 -0.586,-0.019 -0.872,-0.05 l 8.804,-8.804 C 47.962,23.43 48,23.712 48,24 Z m -2.493,-9.756 c 1.006,-1.006 1.535,-2.386 1.452,-3.786 -0.117,-1.999 0.624,-3.954 2.034,-5.365 1.331,-1.331 3.114,-2.068 4.932,-2.096 l -3.159,3.159 0.885,6.193 6.192,0.885 3.159,-3.159 c -0.028,1.818 -0.766,3.601 -2.096,4.931 -1.41,1.411 -3.369,2.148 -5.364,2.035 -1.397,-0.09 -2.781,0.446 -3.786,1.453 L 36.882,31.367 c -1.908,-0.811 -3.439,-2.341 -4.25,-4.25 z M 40,16 c 0.288,0 0.57,0.039 0.854,0.069 L 32.05,24.873 C 32.019,24.586 32,24.295 32,24 c 0,-4.411 3.589,-8 8,-8 z"
     id="path32"
     inkscape:connector-curvature="0" />
  <path
     style="stroke-width:1"
     d="m 24.898305,48.830509 h 2 v 10 h -2 z"
     id="path918"
     inkscape:connector-curvature="0" />
  <path
     style="stroke-width:1"
     d="m 20.898305,50.830509 h 2 v 8 h -2 z"
     id="path920"
     inkscape:connector-curvature="0" />
  <path
     style="stroke-width:1"
     d="m 16.898305,54.830509 h 2 v 4 h -2 z"
     id="path922"
     inkscape:connector-curvature="0" />
  <path
     style="stroke-width:0.84967715"
     d="m 12.898305,51.610997 h 2 v 7.219512 h -2 z"
     id="path924"
     inkscape:connector-curvature="0" />
  <path
     style="stroke-width:1"
     d="m 8.8983053,52.830509 h 1.9999997 v 6 H 8.8983053 Z"
     id="path926"
     inkscape:connector-curvature="0" />
  <path
     style="stroke-width:1"
     d="m 17.391156,49.405783 c 4.963,0 9,-4.038 9,-9 0,-4.962 -4.037,-9 -9,-9 -4.963,0 -9,4.038 -9,9 0,4.962 4.037,9 9,9 z m 1,-15.92 c 3.059,0.441 5.479,2.861 5.92,5.92 h -5.92 z m -2,0 v 7.92 h 7.92 c -0.488,3.387 -3.401,6 -6.92,6 -3.859,0 -7,-3.14 -7,-7 0,-3.519 2.614,-6.432 6,-6.92 z"
     id="path1543"
     inkscape:connector-curvature="0" />
</svg>
