<?xml version="1.0" encoding="UTF-8" standalone="no"?>
<svg
   xmlns:dc="http://purl.org/dc/elements/1.1/"
   xmlns:cc="http://creativecommons.org/ns#"
   xmlns:rdf="http://www.w3.org/1999/02/22-rdf-syntax-ns#"
   xmlns:svg="http://www.w3.org/2000/svg"
   xmlns="http://www.w3.org/2000/svg"
   xmlns:sodipodi="http://sodipodi.sourceforge.net/DTD/sodipodi-0.dtd"
   xmlns:inkscape="http://www.inkscape.org/namespaces/inkscape"
   id="Layer_5"
   enable-background="new 0 0 64 64"
   height="512"
   viewBox="0 0 64 64"
   width="512"
   version="1.1"
   sodipodi:docname="_secure.svg"
   inkscape:version="0.92.4 (f8dce91, 2019-08-02)">
  <metadata
     id="metadata43">
    <rdf:RDF>
      <cc:Work
         rdf:about="">
        <dc:format>image/svg+xml</dc:format>
        <dc:type
           rdf:resource="http://purl.org/dc/dcmitype/StillImage" />
        <dc:title></dc:title>
      </cc:Work>
    </rdf:RDF>
  </metadata>
  <defs
     id="defs41" />
  <sodipodi:namedview
     pagecolor="#ffffff"
     bordercolor="#666666"
     borderopacity="1"
     objecttolerance="10"
     gridtolerance="10"
     guidetolerance="10"
     inkscape:pageopacity="0"
     inkscape:pageshadow="2"
     inkscape:window-width="1647"
     inkscape:window-height="947"
     id="namedview39"
     showgrid="false"
     inkscape:zoom="0.921875"
     inkscape:cx="339.33816"
     inkscape:cy="181.67624"
     inkscape:window-x="0"
     inkscape:window-y="0"
     inkscape:window-maximized="0"
     inkscape:current-layer="g36" />
  <g
     id="g36">
    <g
       id="g10"
       transform="translate(26.440678,15.186441)">
      <g
         id="g8">
        <path
           d="M 19,30 H 11 C 9.346,30 8,28.654 8,27 v -8 c 0,-1.654 1.346,-3 3,-3 h 8 c 1.654,0 3,1.346 3,3 v 8 c 0,1.654 -1.346,3 -3,3 z"
           id="path6"
           inkscape:connector-curvature="0"
           style="fill:#8bc34a" />
      </g>
    </g>
    <g
       id="g14">
      <path
         d="m19 38h8v8h-8z"
         fill="#8bc34a"
         id="path12" />
    </g>
    <g
       id="g18">
      <path
         d="m33 59h6c2.757 0 5-2.243 5-5h-16c0 2.757 2.243 5 5 5z"
         fill="#8bc34a"
         id="path16" />
    </g>
    <path
       inkscape:connector-curvature="0"
       id="path22"
       d="m 38.440678,28.186441 c 0,-1.654 1.346,-3 3,-3 1.654,0 3,1.346 3,3 v 3 h 1 c 0.352,0 0.686,0.072 1,0.184 v -3.184 c 0,-2.757 -2.243,-5 -5,-5 -2.757,0 -5,2.243 -5,5 v 3.184 c 0.314,-0.112 0.648,-0.184 1,-0.184 h 1 z" />
    <path
       inkscape:connector-curvature="0"
       id="path24"
       d="m 40.440678,42.186441 h 2 v -2.184 c 1.161,-0.414 2,-1.514 2,-2.816 0,-1.654 -1.346,-3 -3,-3 -1.654,0 -3,1.346 -3,3 0,1.302 0.839,2.402 2,2.816 z m 1,-6 c 0.551,0 1,0.449 1,1 0,0.551 -0.449,1 -1,1 -0.551,0 -1,-0.449 -1,-1 0,-0.551 0.449,-1 1,-1 z" />
    <path
       inkscape:connector-curvature="0"
       id="path26"
       d="m 19,45 h 8 v 2 h -8 z" />
    <path
       inkscape:connector-curvature="0"
       id="path28"
       d="m 19,41 h 8 v 2 h -8 z" />
    <path
       inkscape:connector-curvature="0"
       id="path30"
       d="m 19,37 h 8 v 2 h -8 z" />
    <path
       inkscape:connector-curvature="0"
       id="path32"
       d="M 61,53 V 18 c 0,-2.757 -2.243,-5 -5,-5 H 29 V 5 H 24.657 C 21.276,5 18.098,3.684 15.707,1.293 L 15,0.586 14.293,1.293 C 11.902,3.684 8.724,5 5.343,5 H 1 v 12.583 c 0,7.4 3.791,14.104 10,17.929 V 53 H 9 v 1 c 0,4.962 4.038,9 9,9 h 36 c 4.962,0 9,-4.038 9,-9 V 53 Z M 17,36.594 c 0.114,-0.047 0.231,-0.091 0.341,-0.146 C 24.108,33.065 28.46,26.465 28.951,19 H 55 V 49 H 17 Z M 3,17.583 V 7 H 5.343 C 8.934,7 12.327,5.718 15,3.37 17.673,5.718 21.066,7 24.657,7 H 27 v 10.583 c 0,7.278 -4.043,13.82 -10.553,17.075 -0.895,0.447 -2,0.447 -2.895,0 C 7.043,31.404 3,24.861 3,17.583 Z M 13,36.594 C 13.633,36.855 14.316,37 15,37 v 12 c 0,1.103 0.897,2 2,2 h 38 c 1.103,0 2,-0.897 2,-2 V 19 c 0,-1.103 -0.897,-2 -2,-2 H 29 v -2 h 27 c 1.654,0 3,1.346 3,3 V 53 H 13 Z M 54,61 H 18 c -3.521,0 -6.442,-2.612 -6.929,-6 H 60.928 C 60.442,58.388 57.521,61 54,61 Z" />
  </g>
</svg>
