<svg id="Layer_5" enable-background="new 0 0 64 64" height="512" viewBox="0 0 64 64" width="512" xmlns="http://www.w3.org/2000/svg"><g><g><path d="m20 35h24v4h-24z" fill="#8bc34a"/></g><g><path d="m20 25h24v4h-24z" fill="#8bc34a"/></g><g><path d="m3 56h10v5h-10z" fill="#8bc34a"/></g><g><path d="m63 28c0-14.888-12.112-27-27-27h-1v17h-2v-13h-1c-5.418 0-10.465 1.61-14.698 4.369l-2.684-5.369h-5.76c.084.322.142.653.142 1s-.058.678-.142 1h4.524l2.267 4.534c-6.467 4.937-10.649 12.721-10.649 21.466 0 14.888 12.112 27 27 27 5.418 0 10.465-1.61 14.698-4.369l2.684 5.369h5.76c-.084-.322-.142-.653-.142-1s.058-.678.142-1h-4.524l-2.267-4.534c6.467-4.937 10.649-12.721 10.649-21.466v-1h-12c0-.771-.301-1.468-.78-2h16.78zm-19-8c.552 0 1 .449 1 1v2c0 .551-.448 1-1 1h-24c-.552 0-1-.449-1-1v-2c0-.551.448-1 1-1zm-13-12.98v10.98h-9.382l-3.416-6.832c3.698-2.457 8.08-3.962 12.798-4.148zm25.98 25.98c-.299 7.555-3.968 14.256-9.54 18.645l-2.852-5.704c1.374-.275 2.412-1.488 2.412-2.941v-2c0-1.654-1.346-3-3-3h-24c-1.654 0-3 1.346-3 3v2c0 1.654 1.346 3 3 3h22.382l3.417 6.834c-3.958 2.63-8.702 4.166-13.799 4.166-13.45 0-24.447-10.677-24.975-24h9.975c0 1.654 1.346 3 3 3h24c1.654 0 3-1.346 3-3zm-36.98 11c-.552 0-1-.448-1-1v-2c0-.552.448-1 1-1h24c.552 0 1 .448 1 1v2c0 .552-.448 1-1 1zm-1-11v-2c0-.551.448-1 1-1h24c.552 0 1 .449 1 1v2c0 .552-.448 1-1 1h-24c-.552 0-1-.448-1-1zm25-6v1h-24c-1.654 0-3 1.346-3 3h-9.975c.299-7.554 3.962-14.258 9.534-18.647l2.853 5.706c-1.374.275-2.412 1.488-2.412 2.941v2c0 1.654 1.346 3 3 3h24c1.654 0 3-1.346 3-3v-2c0-1.654-1.346-3-3-3h-7v-14.98c12.991.513 23.467 10.988 23.98 23.98z"/><path d="m3 59h2v2h-2z"/><path d="m11 59h2v2h-2z"/><path d="m7 59h2v2h-2z"/><path d="m3 55h10v2h-10z"/><path d="m9.212 28.865 1.982.271c.086-.633.201-1.264.344-1.876l-1.949-.451c-.155.67-.282 1.363-.377 2.056z"/><path d="m11.816 20.963 1.754.962c.306-.558.64-1.106.992-1.63l-1.66-1.116c-.385.573-.751 1.174-1.086 1.784z"/><path d="m10.151 24.794 1.898.627c.197-.597.426-1.197.681-1.784l-1.836-.795c-.277.642-.528 1.299-.743 1.952z"/><path d="m12.72 44.546c.469.72.986 1.423 1.537 2.091l1.543-1.273c-.504-.61-.977-1.253-1.404-1.909z"/><path d="m32 55v-2c-5.382 0-10.501-2.034-14.413-5.728l-1.373 1.455c4.285 4.045 9.891 6.273 15.786 6.273z"/><path d="m53.849 39.205-1.898-.627c-.197.597-.426 1.197-.681 1.784l1.836.795c.277-.642.528-1.299.743-1.952z"/><path d="m54.788 35.136-1.982-.271c-.086.634-.202 1.266-.344 1.877l1.949.451c.155-.672.282-1.364.377-2.057z"/><path d="m52.184 43.036-1.754-.961c-.308.561-.641 1.108-.991 1.629l1.658 1.117c.384-.57.75-1.171 1.087-1.785z"/><path d="m51.272 13.587c2.079 2.202 3.685 4.875 4.643 7.731l1.896-.636c-1.05-3.129-2.808-6.057-5.084-8.468z"/><path d="m56.806 25.134 1.982-.269c-.095-.7-.225-1.403-.385-2.092l-1.947.452c.146.629.264 1.271.35 1.909z"/></g><g><g><path d="m5 9c-2.206 0-4-1.794-4-4s1.794-4 4-4 4 1.794 4 4-1.794 4-4 4z" fill="#8bc34a"/></g></g><g><g><path d="m59 63c-2.206 0-4-1.794-4-4s1.794-4 4-4 4 1.794 4 4-1.794 4-4 4z" fill="#8bc34a"/></g></g></g></svg>