<svg id="_x33_0" enable-background="new 0 0 64 64" height="512" viewBox="0 0 64 64" width="512" xmlns="http://www.w3.org/2000/svg"><g><g><g><path d="m59 25h-16v-12h16z" fill="#8bc34a"/></g></g><g><path d="m22 23h-15c-1.103 0-2 .897-2 2v32c0 1.103.897 2 2 2h20c1.103 0 2-.897 2-2v-5h-7z" fill="#8bc34a"/></g><g><path d="m33 25c4.411 0 8-3.589 8-8s-3.589-8-8-8-8 3.589-8 8 3.589 8 8 8zm-3-2.812v-.188c0-1.654 1.346-3 3-3s3 1.346 3 3v.188c-.884.513-1.907.812-3 .812s-2.116-.299-3-.812zm2-6.188c0-.551.448-1 1-1s1 .449 1 1-.448 1-1 1-1-.449-1-1zm1-5c3.309 0 6 2.691 6 6 0 1.357-.458 2.606-1.22 3.612-.364-1.25-1.194-2.289-2.3-2.927.328-.481.52-1.061.52-1.685 0-1.654-1.346-3-3-3s-3 1.346-3 3c0 .624.192 1.204.52 1.685-1.106.638-1.935 1.678-2.3 2.927-.762-1.006-1.22-2.255-1.22-3.612 0-3.309 2.691-6 6-6z"/><path d="m43 9h4v2h-4z"/><path d="m49 9h10v2h-10z"/><path d="m25 45h34v-18h-34zm10.588-2c.647-1.002 1.587-1.793 2.72-2.246 1.578-.631 2.798-1.983 3.265-3.616l.483-1.692c.411-1.44 1.744-2.446 3.242-2.446 1.285 0 2.441.714 3.016 1.864l1.604 3.208c.854 1.709 2.147 3.174 3.737 4.233l1.042.695zm-8.588-14h30v13.131l-2.235-1.49c-1.301-.867-2.358-2.065-3.058-3.464l-1.604-3.207c-.915-1.832-2.757-2.97-4.805-2.97-2.386 0-4.511 1.602-5.166 3.896l-.483 1.692c-.297 1.042-1.076 1.906-2.083 2.309-1.911.764-3.423 2.24-4.244 4.103h-6.322z"/><path d="m35 34c0-1.654-1.346-3-3-3s-3 1.346-3 3 1.346 3 3 3 3-1.346 3-3zm-4 0c0-.551.448-1 1-1s1 .449 1 1-.448 1-1 1-1-.449-1-1z"/><path d="m29 47h8v2h-8z"/><path d="m39 47h16v2h-16z"/><path d="m61 1h-38c-1.103 0-2 .897-2 2v12h-15c-2.757 0-5 2.243-5 5v38c0 2.757 2.243 5 5 5h22c2.757 0 5-2.243 5-5v-5h28c1.103 0 2-.897 2-2v-48c0-1.103-.897-2-2-2zm0 4h-26v-2h26zm-34 0v-2h2v2zm4-2h2v2h-2zm-6 0v2h-2v-2zm-5 50c-.552 0-1-.449-1-1s.448-1 1-1 1 .449 1 1-.448 1-1 1zm11 5c0 1.654-1.346 3-3 3h-22c-1.654 0-3-1.346-3-3v-38c0-1.654 1.346-3 3-3h15v2h-9v2h9v24h-15v2h15v2.184c-.314-.112-.648-.184-1-.184-1.654 0-3 1.346-3 3s1.346 3 3 3c1.302 0 2.402-.839 2.816-2h8.184zm-8-7v-44h38v44z"/><path d="m12 49c-1.654 0-3 1.346-3 3s1.346 3 3 3 3-1.346 3-3-1.346-3-3-3zm0 4c-.552 0-1-.449-1-1s.448-1 1-1 1 .449 1 1-.448 1-1 1z"/></g></g></svg>