<svg id="Layer_5" enable-background="new 0 0 64 64" height="512" viewBox="0 0 64 64" width="512" xmlns="http://www.w3.org/2000/svg"><g><g><path d="m41 21c-4.411 0-8 3.589-8 8v3h1c0-1.105.895-2 2-2h1.277c.346-.595.984-1 1.723-1 1.315.658 2.766 1 4.236 1h1.764 1c1.105 0 2 .895 2 2h1v-3c0-4.411-3.589-8-8-8z" fill="#8bc34a"/></g><g><g><path d="m19 30h-8c-1.654 0-3-1.346-3-3v-8c0-1.654 1.346-3 3-3h8c1.654 0 3 1.346 3 3v8c0 1.654-1.346 3-3 3z" fill="#8bc34a"/></g></g><g><path d="m19 38h8v8h-8z" fill="#8bc34a"/></g><g><path d="m33 59h6c2.757 0 5-2.243 5-5h-16c0 2.757 2.243 5 5 5z" fill="#8bc34a"/></g><g><path d="m48.99 38.372-3.54-.712c-.502-.143-.914-.479-1.17-.917.548-.481.999-1.067 1.296-1.743h.424c1.654 0 3-1.346 3-3s-1.346-3-3-3h-1-1.764c-1.308 0-2.618-.309-3.789-.895l-.211-.105h-.236c-.883 0-1.67.391-2.22 1h-.78c-1.654 0-3 1.346-3 3s1.346 3 3 3h.424c.297.677.749 1.263 1.297 1.744-.252.436-.649.768-1.095.897l-3.616.73c-2.324.469-4.01 2.53-4.01 4.901v3.728h24v-3.727c0-2.371-1.687-4.432-4.01-4.901zm-1.99-6.372c0 .551-.449 1-1 1v-2c.551 0 1 .449 1 1zm-12 0c0-.551.449-1 1-1v2c-.551 0-1-.449-1-1zm3-1c0-.486.349-.893.809-.982 1.38.643 2.905.982 4.427.982h.764v2c0 1.654-1.346 3-3 3s-3-1.346-3-3zm3 7c.541 0 1.052-.108 1.541-.268.096.165.204.321.323.47l-1.864 2.236-1.861-2.233c.118-.15.226-.307.322-.473.488.16.999.268 1.539.268zm10 7h-20v-1.727c0-1.422 1.012-2.659 2.406-2.941l3.692-.749c.155-.044.304-.101.451-.162l3.451 4.141 3.455-4.146c.168.072.342.134.523.185l3.617.73c1.393.283 2.405 1.52 2.405 2.942z"/><path d="m12 13c0-1.654 1.346-3 3-3s3 1.346 3 3v3h1c.352 0 .686.072 1 .184v-3.184c0-2.757-2.243-5-5-5s-5 2.243-5 5v3.184c.314-.112.648-.184 1-.184h1z"/><path d="m14 27h2v-2.184c1.161-.414 2-1.514 2-2.816 0-1.654-1.346-3-3-3s-3 1.346-3 3c0 1.302.839 2.402 2 2.816zm1-6c.551 0 1 .449 1 1s-.449 1-1 1-1-.449-1-1 .449-1 1-1z"/><path d="m19 45h8v2h-8z"/><path d="m19 41h8v2h-8z"/><path d="m19 37h8v2h-8z"/><path d="m61 53v-35c0-2.757-2.243-5-5-5h-27v-8h-4.343c-3.381 0-6.559-1.316-8.95-3.707l-.707-.707-.707.707c-2.391 2.391-5.569 3.707-8.95 3.707h-4.343v12.583c0 7.4 3.791 14.104 10 17.929v17.488h-2v1c0 4.962 4.038 9 9 9h36c4.962 0 9-4.038 9-9v-1zm-44-16.406c.114-.047.231-.091.341-.146 6.767-3.383 11.119-9.983 11.61-17.448h26.049v30h-38zm-14-19.011v-10.583h2.343c3.591 0 6.984-1.282 9.657-3.63 2.673 2.348 6.066 3.63 9.657 3.63h2.343v10.583c0 7.278-4.043 13.82-10.553 17.075-.895.447-2 .447-2.895 0-6.509-3.254-10.552-9.797-10.552-17.075zm10 19.011c.633.261 1.316.406 2 .406v12c0 1.103.897 2 2 2h38c1.103 0 2-.897 2-2v-30c0-1.103-.897-2-2-2h-26v-2h27c1.654 0 3 1.346 3 3v35h-46zm41 24.406h-36c-3.521 0-6.442-2.612-6.929-6h49.857c-.486 3.388-3.407 6-6.928 6z"/></g></g></svg>